<?xml version="1.0" encoding="UTF-8" standalone="no"?><svg xmlns="http://www.w3.org/2000/svg" xmlns:xlink="http://www.w3.org/1999/xlink" contentScriptType="application/ecmascript" contentStyleType="text/css" height="245px" preserveAspectRatio="none" style="width:253px;height:245px;" version="1.1" viewBox="0 0 253 245" width="253px" zoomAndPan="magnify"><defs><filter height="300%" id="fufo1av2ozc9z" width="300%" x="-1" y="-1"><feGaussianBlur result="blurOut" stdDeviation="2.0"/><feColorMatrix in="blurOut" result="blurOut2" type="matrix" values="0 0 0 0 0 0 0 0 0 0 0 0 0 0 0 0 0 0 .4 0"/><feOffset dx="4.0" dy="4.0" in="blurOut2" result="blurOut3"/><feBlend in="SourceGraphic" in2="blurOut3" mode="normal"/></filter></defs><g><!--MD5=[453a0482a0cfa6a18731a0cf812ee76c]
class gov.nasa.jpl.lighttime.SPKLightTimeProvider--><a href="SPKLightTimeProvider.html" target="_top" title="SPKLightTimeProvider.html" xlink:actuate="onRequest" xlink:href="SPKLightTimeProvider.html" xlink:show="new" xlink:title="SPKLightTimeProvider.html" xlink:type="simple"><rect fill="#FEFECE" filter="url(#fufo1av2ozc9z)" height="72.1758" id="gov.nasa.jpl.lighttime.SPKLightTimeProvider" style="stroke: #A80036; stroke-width: 1.5;" width="236" x="6" y="139.82"/><ellipse cx="45.3" cy="158.9528" fill="#ADD1B2" rx="11" ry="11" style="stroke: #A80036; stroke-width: 1.0;"/><path d="M47.7731,165.0959 Q47.1921,165.3947 46.5529,165.5441 Q45.9138,165.6935 45.2082,165.6935 Q42.7014,165.6935 41.3815,164.0417 Q40.0617,162.3898 40.0617,159.2687 Q40.0617,156.1393 41.3815,154.4875 Q42.7014,152.8356 45.2082,152.8356 Q45.9138,152.8356 46.5612,152.985 Q47.2087,153.1345 47.7731,153.4333 L47.7731,156.1559 Q47.1423,155.5749 46.5488,155.3051 Q45.9553,155.0353 45.3244,155.0353 Q43.9797,155.0353 43.2949,156.102 Q42.6101,157.1686 42.6101,159.2687 Q42.6101,161.3605 43.2949,162.4272 Q43.9797,163.4938 45.3244,163.4938 Q45.9553,163.4938 46.5488,163.2241 Q47.1423,162.9543 47.7731,162.3732 Z "/><text fill="#000000" font-family="sans-serif" font-size="14" lengthAdjust="spacingAndGlyphs" textLength="150" x="64.7" y="158.3552">SPKLightTimeProvider</text><text fill="#000000" font-family="sans-serif" font-size="10" lengthAdjust="spacingAndGlyphs" textLength="105" x="87.2" y="170.9763">gov.nasa.jpl.lighttime</text><line style="stroke: #A80036; stroke-width: 1.5;" x1="7" x2="241" y1="178.0856" y2="178.0856"/><ellipse cx="17" cy="189.0856" fill="#84BE84" rx="3" ry="3" style="stroke: #038048; stroke-width: 1.0;"/><text fill="#000000" font-family="sans-serif" font-size="11" lengthAdjust="spacingAndGlyphs" textLength="195" x="26" y="192.7204">upleg(Time, int, int, String): Duration</text><ellipse cx="17" cy="202.0407" fill="#84BE84" rx="3" ry="3" style="stroke: #038048; stroke-width: 1.0;"/><text fill="#000000" font-family="sans-serif" font-size="11" lengthAdjust="spacingAndGlyphs" textLength="210" x="26" y="205.6755">downleg(Time, int, int, String): Duration</text></a><!--MD5=[2b8dace62db5bb64f3b4a87c56d64bb2]
class gov.nasa.jpl.lighttime.LightTimeProvider--><a href="LightTimeProvider.html" target="_top" title="LightTimeProvider.html" xlink:actuate="onRequest" xlink:href="LightTimeProvider.html" xlink:show="new" xlink:title="LightTimeProvider.html" xlink:type="simple"><rect fill="#FEFECE" filter="url(#fufo1av2ozc9z)" height="72.1758" id="gov.nasa.jpl.lighttime.LightTimeProvider" style="stroke: #A80036; stroke-width: 1.5;" width="236" x="6" y="7.65"/><ellipse cx="57.25" cy="26.7828" fill="#B4A7E5" rx="11" ry="11" style="stroke: #A80036; stroke-width: 1.0;"/><path d="M53.6777,23.0479 L53.6777,20.8897 L61.0571,20.8897 L61.0571,23.0479 L58.5918,23.0479 L58.5918,31.1246 L61.0571,31.1246 L61.0571,33.2828 L53.6777,33.2828 L53.6777,31.1246 L56.1431,31.1246 L56.1431,23.0479 Z "/><text fill="#000000" font-family="sans-serif" font-size="14" font-style="italic" lengthAdjust="spacingAndGlyphs" textLength="125" x="77.75" y="26.1852">LightTimeProvider</text><text fill="#000000" font-family="sans-serif" font-size="10" font-style="italic" lengthAdjust="spacingAndGlyphs" textLength="105" x="87.75" y="38.8063">gov.nasa.jpl.lighttime</text><line style="stroke: #A80036; stroke-width: 1.5;" x1="7" x2="241" y1="45.9156" y2="45.9156"/><ellipse cx="17" cy="56.9156" fill="#84BE84" rx="3" ry="3" style="stroke: #038048; stroke-width: 1.0;"/><text fill="#000000" font-family="sans-serif" font-size="11" font-style="italic" lengthAdjust="spacingAndGlyphs" textLength="210" x="26" y="60.5504">downleg(Time, int, int, String): Duration</text><ellipse cx="17" cy="69.8707" fill="#84BE84" rx="3" ry="3" style="stroke: #038048; stroke-width: 1.0;"/><text fill="#000000" font-family="sans-serif" font-size="11" font-style="italic" lengthAdjust="spacingAndGlyphs" textLength="195" x="26" y="73.5055">upleg(Time, int, int, String): Duration</text></a><!--MD5=[b5456390edffc684774dd7ef1193e3d6]
reverse link gov.nasa.jpl.lighttime.LightTimeProvider to gov.nasa.jpl.lighttime.SPKLightTimeProvider--><path d="M124,101.76 C124,114.55 124,127.76 124,139.38 " fill="none" id="gov.nasa.jpl.lighttime.LightTimeProvider&lt;-gov.nasa.jpl.lighttime.SPKLightTimeProvider" style="stroke: #A80036; stroke-width: 1.0; stroke-dasharray: 7.0,7.0;"/><polygon fill="none" points="117,101.82,124,81.82,131,101.82,117,101.82" style="stroke: #A80036; stroke-width: 1.0;"/><text fill="#888888" font-family="sans-serif" font-size="10" lengthAdjust="spacingAndGlyphs" textLength="182" x="39" y="231.668">UMLDoclet 2.0.8, PlantUML 1.2020.01</text><!--MD5=[d35a9e8382b5d488b1bd19b3ba7810d8]
@startuml
    set namespaceSeparator none
    hide empty fields
    hide empty methods

    class "<size:14>SPKLightTimeProvider\n<size:10>gov.nasa.jpl.lighttime" as gov.nasa.jpl.lighttime.SPKLightTimeProvider [[SPKLightTimeProvider.html]] {
        +upleg(Time, int, int, String): Duration
        +downleg(Time, int, int, String): Duration
    }

    interface "<size:14>LightTimeProvider\n<size:10>gov.nasa.jpl.lighttime" as gov.nasa.jpl.lighttime.LightTimeProvider [[LightTimeProvider.html]] {
        {abstract} +downleg(Time, int, int, String): Duration
        {abstract} +upleg(Time, int, int, String): Duration
    }

    gov.nasa.jpl.lighttime.LightTimeProvider <|.. gov.nasa.jpl.lighttime.SPKLightTimeProvider

    center footer UMLDoclet 2.0.8, PlantUML 1.2020.01
@enduml

PlantUML version 1.2020.01(Sun Feb 16 09:40:32 PST 2020)
(APACHE source distribution)
Java Runtime: OpenJDK Runtime Environment
JVM: OpenJDK 64-Bit Server VM
Java Version: 17.0.6+10
Operating System: Mac OS X
Default Encoding: UTF-8
Language: en
Country: US
--></g></svg>