<?xml version="1.0" encoding="UTF-8" standalone="no"?><svg xmlns="http://www.w3.org/2000/svg" xmlns:xlink="http://www.w3.org/1999/xlink" contentScriptType="application/ecmascript" contentStyleType="text/css" height="491px" preserveAspectRatio="none" style="width:389px;height:491px;" version="1.1" viewBox="0 0 389 491" width="389px" zoomAndPan="magnify"><defs><filter height="300%" id="f19txq104u2osm" width="300%" x="-1" y="-1"><feGaussianBlur result="blurOut" stdDeviation="2.0"/><feColorMatrix in="blurOut" result="blurOut2" type="matrix" values="0 0 0 0 0 0 0 0 0 0 0 0 0 0 0 0 0 0 .4 0"/><feOffset dx="4.0" dy="4.0" in="blurOut2" result="blurOut3"/><feBlend in="SourceGraphic" in2="blurOut3" mode="normal"/></filter></defs><g><!--MD5=[5d4305fa37b5c4e6c1452c6f55e2189b]
class gov.nasa.jpl.time.EpochRelativeTime--><a href="EpochRelativeTime.html" target="_top" title="EpochRelativeTime.html" xlink:actuate="onRequest" xlink:href="EpochRelativeTime.html" xlink:show="new" xlink:title="EpochRelativeTime.html" xlink:type="simple"><rect fill="#FEFECE" filter="url(#f19txq104u2osm)" height="352.2324" id="gov.nasa.jpl.time.EpochRelativeTime" style="stroke: #A80036; stroke-width: 1.5;" width="372" x="6" y="105.77"/><ellipse cx="123.25" cy="124.9028" fill="#ADD1B2" rx="11" ry="11" style="stroke: #A80036; stroke-width: 1.0;"/><path d="M125.7231,131.0459 Q125.1421,131.3447 124.5029,131.4941 Q123.8638,131.6435 123.1582,131.6435 Q120.6514,131.6435 119.3315,129.9917 Q118.0117,128.3398 118.0117,125.2187 Q118.0117,122.0893 119.3315,120.4375 Q120.6514,118.7856 123.1582,118.7856 Q123.8638,118.7856 124.5112,118.935 Q125.1587,119.0845 125.7231,119.3833 L125.7231,122.1059 Q125.0923,121.5249 124.4988,121.2551 Q123.9053,120.9853 123.2744,120.9853 Q121.9297,120.9853 121.2449,122.052 Q120.5601,123.1186 120.5601,125.2187 Q120.5601,127.3105 121.2449,128.3772 Q121.9297,129.4438 123.2744,129.4438 Q123.9053,129.4438 124.4988,129.1741 Q125.0923,128.9043 125.7231,128.3232 Z "/><text fill="#000000" font-family="sans-serif" font-size="14" lengthAdjust="spacingAndGlyphs" textLength="129" x="143.75" y="124.3052">EpochRelativeTime</text><text fill="#000000" font-family="sans-serif" font-size="10" lengthAdjust="spacingAndGlyphs" textLength="83" x="166.75" y="136.9262">gov.nasa.jpl.time</text><line style="stroke: #A80036; stroke-width: 1.5;" x1="7" x2="377" y1="144.0356" y2="144.0356"/><ellipse cx="17" cy="155.0356" fill="none" rx="3" ry="3" style="stroke: #038048; stroke-width: 1.0;"/><text fill="#000000" font-family="sans-serif" font-size="11" lengthAdjust="spacingAndGlyphs" text-decoration="underline" textLength="202" x="26" y="158.6704">EPOCH_RELATIVE_TIME_REGEX: String</text><ellipse cx="17" cy="167.9907" fill="none" rx="3" ry="3" style="stroke: #038048; stroke-width: 1.0;"/><text fill="#000000" font-family="sans-serif" font-size="11" lengthAdjust="spacingAndGlyphs" text-decoration="underline" textLength="192" x="26" y="171.6255">EPOCH_RELATIVE_PATTERN: Pattern</text><line style="stroke: #A80036; stroke-width: 1.5;" x1="7" x2="377" y1="177.9458" y2="177.9458"/><ellipse cx="17" cy="188.9458" fill="#84BE84" rx="3" ry="3" style="stroke: #038048; stroke-width: 1.0;"/><text fill="#000000" font-family="sans-serif" font-size="11" lengthAdjust="spacingAndGlyphs" textLength="108" x="26" y="192.5805">EpochRelativeTime()</text><ellipse cx="17" cy="201.9009" fill="#84BE84" rx="3" ry="3" style="stroke: #038048; stroke-width: 1.0;"/><text fill="#000000" font-family="sans-serif" font-size="11" lengthAdjust="spacingAndGlyphs" textLength="140" x="26" y="205.5356">EpochRelativeTime(String)</text><ellipse cx="17" cy="214.8559" fill="#84BE84" rx="3" ry="3" style="stroke: #038048; stroke-width: 1.0;"/><text fill="#000000" font-family="sans-serif" font-size="11" lengthAdjust="spacingAndGlyphs" textLength="193" x="26" y="218.4907">EpochRelativeTime(String, Duration)</text><ellipse cx="17" cy="227.811" fill="#84BE84" rx="3" ry="3" style="stroke: #038048; stroke-width: 1.0;"/><text fill="#000000" font-family="sans-serif" font-size="11" lengthAdjust="spacingAndGlyphs" textLength="172" x="26" y="231.4458">EpochRelativeTime(Time, String)</text><ellipse cx="17" cy="240.7661" fill="#84BE84" rx="3" ry="3" style="stroke: #038048; stroke-width: 1.0;"/><text fill="#000000" font-family="sans-serif" font-size="11" lengthAdjust="spacingAndGlyphs" text-decoration="underline" textLength="196" x="26" y="244.4009">setEpochs(Map&lt;String, Time&gt;): void</text><ellipse cx="17" cy="253.7212" fill="#84BE84" rx="3" ry="3" style="stroke: #038048; stroke-width: 1.0;"/><text fill="#000000" font-family="sans-serif" font-size="11" lengthAdjust="spacingAndGlyphs" text-decoration="underline" textLength="174" x="26" y="257.3559">getEpochs(): Map&lt;String, Time&gt;</text><ellipse cx="17" cy="266.6763" fill="#84BE84" rx="3" ry="3" style="stroke: #038048; stroke-width: 1.0;"/><text fill="#000000" font-family="sans-serif" font-size="11" lengthAdjust="spacingAndGlyphs" text-decoration="underline" textLength="154" x="26" y="270.311">addEpoch(String, Time): void</text><ellipse cx="17" cy="279.6313" fill="#84BE84" rx="3" ry="3" style="stroke: #038048; stroke-width: 1.0;"/><text fill="#000000" font-family="sans-serif" font-size="11" lengthAdjust="spacingAndGlyphs" text-decoration="underline" textLength="142" x="26" y="283.2661">removeEpoch(String): void</text><ellipse cx="17" cy="292.5864" fill="#84BE84" rx="3" ry="3" style="stroke: #038048; stroke-width: 1.0;"/><text fill="#000000" font-family="sans-serif" font-size="11" lengthAdjust="spacingAndGlyphs" text-decoration="underline" textLength="172" x="26" y="296.2212">isEpochDefined(String): boolean</text><ellipse cx="17" cy="305.5415" fill="#84BE84" rx="3" ry="3" style="stroke: #038048; stroke-width: 1.0;"/><text fill="#000000" font-family="sans-serif" font-size="11" lengthAdjust="spacingAndGlyphs" text-decoration="underline" textLength="218" x="26" y="309.1763">getAbsoluteOrRelativeTime(String): Time</text><ellipse cx="17" cy="318.4966" fill="#84BE84" rx="3" ry="3" style="stroke: #038048; stroke-width: 1.0;"/><text fill="#000000" font-family="sans-serif" font-size="11" lengthAdjust="spacingAndGlyphs" text-decoration="underline" textLength="147" x="26" y="322.1313">readEpochCVF(String): void</text><ellipse cx="17" cy="331.4516" fill="#84BE84" rx="3" ry="3" style="stroke: #038048; stroke-width: 1.0;"/><text fill="#000000" font-family="sans-serif" font-size="11" lengthAdjust="spacingAndGlyphs" text-decoration="underline" textLength="149" x="26" y="335.0864">writeEpochCVF(String): void</text><ellipse cx="17" cy="344.4067" fill="#84BE84" rx="3" ry="3" style="stroke: #038048; stroke-width: 1.0;"/><text fill="#000000" font-family="sans-serif" font-size="11" lengthAdjust="spacingAndGlyphs" text-decoration="underline" textLength="259" x="26" y="348.0415">writeEpochCVF(String, Collection&lt;String&gt;): void</text><ellipse cx="17" cy="357.3618" fill="#84BE84" rx="3" ry="3" style="stroke: #038048; stroke-width: 1.0;"/><text fill="#000000" font-family="sans-serif" font-size="11" lengthAdjust="spacingAndGlyphs" text-decoration="underline" textLength="297" x="26" y="360.9966">writeEpochCVF(String, Collection&lt;String&gt;, String): void</text><ellipse cx="17" cy="370.3169" fill="#84BE84" rx="3" ry="3" style="stroke: #038048; stroke-width: 1.0;"/><text fill="#000000" font-family="sans-serif" font-size="11" lengthAdjust="spacingAndGlyphs" text-decoration="underline" textLength="346" x="26" y="373.9516">writeEpochCVF(String, Collection&lt;String&gt;, String, boolean): void</text><ellipse cx="17" cy="383.272" fill="#84BE84" rx="3" ry="3" style="stroke: #038048; stroke-width: 1.0;"/><text fill="#000000" font-family="sans-serif" font-size="11" lengthAdjust="spacingAndGlyphs" textLength="110" x="26" y="386.9067">valueOf(String): void</text><ellipse cx="17" cy="396.227" fill="#84BE84" rx="3" ry="3" style="stroke: #038048; stroke-width: 1.0;"/><text fill="#000000" font-family="sans-serif" font-size="11" lengthAdjust="spacingAndGlyphs" textLength="103" x="26" y="399.8618">toString(int): String</text><ellipse cx="17" cy="409.1821" fill="#84BE84" rx="3" ry="3" style="stroke: #038048; stroke-width: 1.0;"/><text fill="#000000" font-family="sans-serif" font-size="11" lengthAdjust="spacingAndGlyphs" textLength="181" x="26" y="412.8169">add(Duration): EpochRelativeTime</text><ellipse cx="17" cy="422.1372" fill="#84BE84" rx="3" ry="3" style="stroke: #038048; stroke-width: 1.0;"/><text fill="#000000" font-family="sans-serif" font-size="11" lengthAdjust="spacingAndGlyphs" textLength="184" x="26" y="425.772">plus(Duration): EpochRelativeTime</text><ellipse cx="17" cy="435.0923" fill="#84BE84" rx="3" ry="3" style="stroke: #038048; stroke-width: 1.0;"/><text fill="#000000" font-family="sans-serif" font-size="11" lengthAdjust="spacingAndGlyphs" textLength="206" x="26" y="438.727">subtract(Duration): EpochRelativeTime</text><ellipse cx="17" cy="448.0473" fill="#84BE84" rx="3" ry="3" style="stroke: #038048; stroke-width: 1.0;"/><text fill="#000000" font-family="sans-serif" font-size="11" lengthAdjust="spacingAndGlyphs" textLength="194" x="26" y="451.6821">minus(Duration): EpochRelativeTime</text></a><!--MD5=[ab9242ba5a5136a3a022564b84a91515]
class gov.nasa.jpl.time.Time--><a href="Time.html" target="_top" title="Time.html" xlink:actuate="onRequest" xlink:href="Time.html" xlink:show="new" xlink:title="Time.html" xlink:type="simple"><rect fill="#FEFECE" filter="url(#f19txq104u2osm)" height="38.2656" id="gov.nasa.jpl.time.Time" style="stroke: #A80036; stroke-width: 1.5;" width="115" x="134.5" y="7.5"/><ellipse cx="149.5" cy="26.6328" fill="#ADD1B2" rx="11" ry="11" style="stroke: #A80036; stroke-width: 1.0;"/><path d="M151.9731,32.7759 Q151.3921,33.0747 150.7529,33.2241 Q150.1138,33.3735 149.4082,33.3735 Q146.9014,33.3735 145.5815,31.7217 Q144.2617,30.0698 144.2617,26.9487 Q144.2617,23.8193 145.5815,22.1675 Q146.9014,20.5156 149.4082,20.5156 Q150.1138,20.5156 150.7612,20.665 Q151.4087,20.8145 151.9731,21.1133 L151.9731,23.8359 Q151.3423,23.2549 150.7488,22.9851 Q150.1553,22.7153 149.5244,22.7153 Q148.1797,22.7153 147.4949,23.782 Q146.8101,24.8486 146.8101,26.9487 Q146.8101,29.0405 147.4949,30.1072 Q148.1797,31.1738 149.5244,31.1738 Q150.1553,31.1738 150.7488,30.9041 Q151.3423,30.6343 151.9731,30.0532 Z "/><text fill="#000000" font-family="sans-serif" font-size="14" lengthAdjust="spacingAndGlyphs" textLength="34" x="188" y="26.0352">Time</text><text fill="#000000" font-family="sans-serif" font-size="10" lengthAdjust="spacingAndGlyphs" textLength="83" x="163.5" y="38.6563">gov.nasa.jpl.time</text></a><!--MD5=[a961432e98eecbaefd2c4aafd1665c12]
reverse link gov.nasa.jpl.time.Time to gov.nasa.jpl.time.EpochRelativeTime--><path d="M192,67.55 C192,78.68 192,91.52 192,105.28 " fill="none" id="gov.nasa.jpl.time.Time&lt;-gov.nasa.jpl.time.EpochRelativeTime" style="stroke: #A80036; stroke-width: 1.0;"/><polygon fill="none" points="185,67.77,192,47.77,199,67.77,185,67.77" style="stroke: #A80036; stroke-width: 1.0;"/><text fill="#888888" font-family="sans-serif" font-size="10" lengthAdjust="spacingAndGlyphs" textLength="182" x="107" y="477.668">UMLDoclet 2.0.8, PlantUML 1.2020.01</text><!--MD5=[95693e88771010bffb32ca6814894b6b]
@startuml
    set namespaceSeparator none
    hide empty fields
    hide empty methods

    class "<size:14>EpochRelativeTime\n<size:10>gov.nasa.jpl.time" as gov.nasa.jpl.time.EpochRelativeTime [[EpochRelativeTime.html]] {
        {static} +EPOCH_RELATIVE_TIME_REGEX: String
        {static} +EPOCH_RELATIVE_PATTERN: Pattern
        +EpochRelativeTime()
        +EpochRelativeTime(String)
        +EpochRelativeTime(String, Duration)
        +EpochRelativeTime(Time, String)
        {static} +setEpochs(Map<String, Time>): void
        {static} +getEpochs(): Map<String, Time>
        {static} +addEpoch(String, Time): void
        {static} +removeEpoch(String): void
        {static} +isEpochDefined(String): boolean
        {static} +getAbsoluteOrRelativeTime(String): Time
        {static} +readEpochCVF(String): void
        {static} +writeEpochCVF(String): void
        {static} +writeEpochCVF(String, Collection<String>): void
        {static} +writeEpochCVF(String, Collection<String>, String): void
        {static} +writeEpochCVF(String, Collection<String>, String, boolean): void
        +valueOf(String): void
        +toString(int): String
        +add(Duration): EpochRelativeTime
        +plus(Duration): EpochRelativeTime
        +subtract(Duration): EpochRelativeTime
        +minus(Duration): EpochRelativeTime
    }

    class "<size:14>Time\n<size:10>gov.nasa.jpl.time" as gov.nasa.jpl.time.Time [[Time.html]]

    gov.nasa.jpl.time.Time <|- - gov.nasa.jpl.time.EpochRelativeTime

    center footer UMLDoclet 2.0.8, PlantUML 1.2020.01
@enduml

PlantUML version 1.2020.01(Sun Feb 16 09:40:32 PST 2020)
(APACHE source distribution)
Java Runtime: OpenJDK Runtime Environment
JVM: OpenJDK 64-Bit Server VM
Java Version: 17.0.6+10
Operating System: Mac OS X
Default Encoding: UTF-8
Language: en
Country: US
--></g></svg>